<?xml version="1.0" encoding="utf-8"?>
<!-- Generator: Adobe Illustrator 16.0.0, SVG Export Plug-In . SVG Version: 6.00 Build 0)  -->
<!DOCTYPE svg PUBLIC "-//W3C//DTD SVG 1.1//EN" "http://www.w3.org/Graphics/SVG/1.1/DTD/svg11.dtd">
<svg version="1.1" id="Layer_1" xmlns="http://www.w3.org/2000/svg" xmlns:xlink="http://www.w3.org/1999/xlink" x="0px" y="0px"
	 width="608.002px" height="198.779px" viewBox="0 0 608.002 198.779" enable-background="new 0 0 608.002 198.779"
	 xml:space="preserve">
<g>
	<path fill="#FFFFFF" d="M548.24,39.759L149.71,39.994C106.571-25.874,24.426,1.087,2.595,39.136h101.369l36.37,62.962
		l-36.383,62.948L2.58,165.103c34.503,36.021,109.058,55.262,149.811-5.811l395.863-0.016c16.479-0.02,31.439-6.627,42.263-17.45
		c10.822-10.825,17.421-25.774,17.486-42.305C608.066,66.566,581.326,39.822,548.24,39.759z M238.968,151.803
		c0,0.777-0.437,1.167-1.313,1.167h-14.591c-0.974,0-1.459-0.341-1.459-1.021l-0.584-9.484c-6.712,7.685-15.81,11.528-27.287,11.528
		c-14.205,0-25.951-4.692-35.24-14.082c-9.291-9.387-13.936-22.203-13.936-38.45c0-14.979,4.984-27.481,14.957-37.501
		c9.971-10.019,22.107-15.03,36.408-15.03c14.396,0,26.459,5.011,36.188,15.03c0.778,0.583,0.778,1.167,0,1.751l-11.674,11.673
		c-0.682,0.584-1.313,0.584-1.897,0c-6.324-6.322-13.862-9.484-22.617-9.484c-9.048,0-16.612,3.016-22.691,9.046
		c-6.08,6.033-9.12,14.205-9.12,24.514c0,11.188,2.967,19.579,8.901,25.172c5.933,5.595,13.571,8.39,22.91,8.39
		c9.143,0,16.974-3.55,23.493-10.652V111.09h-16.488c-0.974,0-1.46-0.339-1.46-1.021V94.602c0-0.778,0.486-1.167,1.46-1.167h34.728
		c0.876,0,1.313,0.39,1.313,1.167V151.803z M331.481,152.532h-18.093c-0.583,0-0.974-0.242-1.167-0.729l-4.231-10.798h-33.125
		l-3.939,10.798c-0.196,0.488-0.634,0.729-1.313,0.729h-17.949c-1.362,0-1.798-0.534-1.313-1.605L290.186,48.2
		c0.194-0.486,0.631-0.729,1.313-0.729c0.68,0,1.117,0.244,1.313,0.729l39.836,102.727
		C333.134,151.999,332.744,152.532,331.481,152.532z M395.393,145.747c-6.42,5.497-14.058,8.245-22.908,8.245
		c-9.439-0.197-17.22-2.942-23.35-8.245c-6.127-5.301-9.242-12.622-9.34-21.961c0-0.777,0.487-1.167,1.461-1.167h16.636
		c0.972,0,1.459,0.39,1.459,1.167c0.095,3.6,1.409,6.373,3.94,8.317c2.527,1.948,5.593,2.918,9.193,2.918
		c3.596,0,6.686-1.094,9.264-3.283c2.577-2.188,3.868-4.984,3.868-8.391c0-3.598-1.364-6.566-4.086-8.901
		c-2.725-2.334-5.741-3.598-9.046-3.794c-5.352,0-10.558-1.167-15.614-3.502c-11.383-5.349-17.075-14.201-17.075-26.557
		c0-9.435,3.234-17.072,9.704-22.909c6.471-5.838,14.13-8.756,22.985-8.756c9.046,0,16.656,2.797,22.835,8.391
		c6.177,5.595,9.314,12.768,9.411,21.523c0,0.682-0.487,1.021-1.459,1.021h-16.488c-0.974,0-1.458-0.339-1.458-1.021
		c-0.1-3.598-1.364-6.323-3.795-8.172c-2.432-1.846-5.45-2.771-9.046-2.771c-3.794,0-6.934,1.093-9.413,3.282
		c-2.48,2.189-3.721,5.326-3.721,9.412c0,3.6,1.288,6.42,3.867,8.464c2.577,2.042,5.666,3.063,9.267,3.063
		c5.348,0,10.505,1.168,15.467,3.502c5.446,2.531,9.652,6.226,12.621,11.09c2.967,4.866,4.451,10.411,4.451,16.635
		C405.024,132.785,401.814,140.252,395.393,145.747z M505.854,52.286l-37.21,52.239v46.84c0,0.78-0.489,1.168-1.459,1.168H450.55
		c-0.974,0-1.46-0.388-1.46-1.168v-46.84c-4.476-6.322-10.922-15.369-19.335-27.141c-8.415-11.769-14.372-20.137-17.874-25.098
		c-0.388-0.486-0.461-0.923-0.22-1.313c0.244-0.388,0.705-0.584,1.388-0.584h20.282c0.679,0,1.069,0.146,1.168,0.438l24.367,33.999
		l24.369-33.999c0.096-0.292,0.438-0.438,1.021-0.438h20.429c0.68,0,1.143,0.196,1.386,0.584
		C506.313,51.362,506.24,51.8,505.854,52.286z M568.744,145.747c-6.42,5.497-14.058,8.245-22.908,8.245
		c-9.438-0.197-17.219-2.942-23.349-8.245c-6.127-5.301-9.242-12.622-9.34-21.961c0-0.777,0.487-1.167,1.461-1.167h16.635
		c0.972,0,1.459,0.39,1.459,1.167c0.095,3.6,1.409,6.373,3.94,8.317c2.527,1.948,5.593,2.918,9.193,2.918
		c3.596,0,6.686-1.094,9.264-3.283c2.577-2.188,3.868-4.984,3.868-8.391c0-3.598-1.364-6.566-4.086-8.901
		c-2.725-2.334-5.741-3.598-9.046-3.794c-5.353,0-10.558-1.167-15.614-3.502c-11.382-5.349-17.074-14.201-17.074-26.557
		c0-9.435,3.234-17.072,9.704-22.909c6.47-5.838,14.129-8.756,22.984-8.756c9.046,0,16.656,2.797,22.835,8.391
		c6.177,5.595,9.314,12.768,9.411,21.523c0,0.682-0.487,1.021-1.459,1.021h-16.488c-0.974,0-1.458-0.339-1.458-1.021
		c-0.1-3.598-1.364-6.323-3.795-8.172c-2.432-1.846-5.45-2.771-9.046-2.771c-3.794,0-6.934,1.093-9.413,3.282
		c-2.48,2.189-3.721,5.326-3.721,9.412c0,3.6,1.288,6.42,3.867,8.464c2.576,2.042,5.666,3.063,9.267,3.063
		c5.348,0,10.505,1.168,15.467,3.502c5.446,2.531,9.652,6.226,12.621,11.09c2.967,4.866,4.451,10.411,4.451,16.635
		C578.375,132.785,575.165,140.252,568.744,145.747z"/>
	<polygon fill="#FFFFFF" points="281.14,123.786 301.713,123.786 291.5,93.143 	"/>
</g>
<path fill="#FFFFFF" d="M0,103.322l31.835,56.567l66.316-0.084l34.48-56.65l-31.835-56.568l-66.317,0.085L0,103.322z M81.985,74.22
	c16.445,9.638,21.963,30.775,12.328,47.219c-9.64,16.444-30.777,21.966-47.222,12.326c-16.443-9.636-21.963-30.775-12.325-47.218
	C44.399,70.106,65.538,64.587,81.985,74.22z"/>
</svg>
