<?xml version="1.0" encoding="utf-8"?>
<!-- Generator: Adobe Illustrator 16.0.0, SVG Export Plug-In . SVG Version: 6.00 Build 0)  -->
<!DOCTYPE svg PUBLIC "-//W3C//DTD SVG 1.1//EN" "http://www.w3.org/Graphics/SVG/1.1/DTD/svg11.dtd">
<svg version="1.1" id="Layer_1" xmlns="http://www.w3.org/2000/svg" xmlns:xlink="http://www.w3.org/1999/xlink" x="0px" y="0px"
	 width="120px" height="40px" viewBox="0 0 120 40" enable-background="new 0 0 120 40" xml:space="preserve">
<g>
	<path fill="#00CCCC" d="M108.205,8.001L29.548,8.048C21.034-5.206,4.821,0.218,0.513,7.876h20.006l7.179,12.668l-7.181,12.668
		L0.509,33.224c6.811,7.248,21.524,11.119,29.568-1.17l78.13-0.004c3.253-0.004,6.205-1.332,8.341-3.51
		c2.137-2.18,3.439-5.188,3.452-8.514C120.013,13.395,114.735,8.013,108.205,8.001z M47.165,30.546c0,0.156-0.086,0.235-0.259,0.235
		h-2.88c-0.191,0-0.287-0.067-0.287-0.206l-0.115-1.908c-1.325,1.547-3.121,2.32-5.386,2.32c-2.804,0-5.122-0.943-6.955-2.834
		c-1.834-1.889-2.75-4.468-2.75-7.736c0-3.015,0.983-5.531,2.952-7.547c1.968-2.016,4.363-3.023,7.186-3.023
		c2.842,0,5.223,1.008,7.143,3.023c0.153,0.117,0.153,0.235,0,0.354l-2.305,2.349c-0.135,0.118-0.259,0.118-0.375,0
		c-1.248-1.272-2.736-1.907-4.464-1.907c-1.786,0-3.278,0.606-4.479,1.819c-1.199,1.214-1.799,2.858-1.799,4.933
		c0,2.252,0.586,3.939,1.756,5.065c1.172,1.126,2.68,1.688,4.522,1.688c1.804,0,3.351-0.715,4.638-2.145v-2.673h-3.254
		c-0.192,0-0.289-0.068-0.289-0.205v-3.113c0-0.155,0.097-0.235,0.289-0.235h6.854c0.173,0,0.259,0.08,0.259,0.235L47.165,30.546
		L47.165,30.546z M65.424,30.694h-3.569c-0.115,0-0.192-0.049-0.23-0.146l-0.835-2.174h-6.538l-0.777,2.174
		c-0.039,0.099-0.125,0.146-0.259,0.146h-3.542c-0.27,0-0.355-0.107-0.259-0.323l7.862-20.672c0.038-0.098,0.125-0.146,0.259-0.146
		s0.22,0.049,0.259,0.146l7.862,20.672C65.75,30.587,65.674,30.694,65.424,30.694z M78.038,29.328
		c-1.267,1.106-2.774,1.659-4.521,1.659c-1.861-0.039-3.397-0.592-4.607-1.659c-1.209-1.065-1.824-2.538-1.843-4.419
		c0-0.156,0.096-0.234,0.288-0.234h3.282c0.192,0,0.288,0.078,0.288,0.234c0.02,0.725,0.278,1.282,0.777,1.674
		c0.499,0.393,1.104,0.588,1.813,0.588s1.319-0.221,1.828-0.66c0.509-0.44,0.765-1.004,0.765-1.688c0-0.726-0.27-1.321-0.808-1.791
		c-0.537-0.47-1.133-0.726-1.785-0.764c-1.057,0-2.084-0.235-3.081-0.705c-2.246-1.076-3.369-2.857-3.369-5.345
		c0-1.897,0.638-3.436,1.915-4.609c1.276-1.175,2.788-1.762,4.535-1.762c1.785,0,3.287,0.563,4.508,1.688
		c1.22,1.126,1.839,2.569,1.856,4.331c0,0.138-0.096,0.206-0.288,0.206h-3.254c-0.191,0-0.288-0.068-0.288-0.206
		c-0.02-0.724-0.269-1.272-0.749-1.646c-0.479-0.37-1.075-0.557-1.785-0.557c-0.749,0-1.367,0.221-1.856,0.66
		s-0.734,1.072-0.734,1.895c0,0.725,0.254,1.291,0.764,1.703c0.509,0.41,1.117,0.615,1.828,0.615c1.057,0,2.073,0.235,3.054,0.705
		c1.075,0.51,1.904,1.253,2.491,2.23c0.586,0.979,0.879,2.096,0.879,3.349C79.939,26.72,79.306,28.222,78.038,29.328z M99.84,10.521
		l-7.344,10.512v9.427c0,0.156-0.097,0.234-0.288,0.234h-3.283c-0.191,0-0.288-0.078-0.288-0.234v-9.427
		c-0.884-1.272-2.155-3.092-3.815-5.461c-1.661-2.368-2.837-4.052-3.528-5.05c-0.076-0.098-0.091-0.186-0.043-0.264
		s0.14-0.117,0.274-0.117h4.003c0.134,0,0.211,0.029,0.229,0.088l4.81,6.841l4.81-6.841c0.02-0.059,0.087-0.088,0.202-0.088h4.031
		c0.135,0,0.227,0.039,0.273,0.117C99.93,10.335,99.916,10.423,99.84,10.521z M112.252,29.328c-1.267,1.106-2.774,1.659-4.521,1.659
		c-1.862-0.039-3.398-0.592-4.608-1.659c-1.209-1.065-1.823-2.538-1.843-4.419c0-0.156,0.096-0.234,0.288-0.234h3.282
		c0.191,0,0.288,0.078,0.288,0.234c0.02,0.725,0.278,1.282,0.777,1.674c0.499,0.393,1.104,0.588,1.814,0.588s1.318-0.221,1.827-0.66
		c0.51-0.44,0.765-1.004,0.765-1.688c0-0.726-0.271-1.321-0.808-1.791s-1.133-0.726-1.784-0.764c-1.058,0-2.085-0.235-3.082-0.705
		c-2.246-1.076-3.369-2.857-3.369-5.345c0-1.897,0.638-3.436,1.915-4.609c1.276-1.175,2.788-1.762,4.536-1.762
		c1.784,0,3.286,0.563,4.507,1.688c1.22,1.126,1.839,2.569,1.856,4.331c0,0.138-0.096,0.206-0.288,0.206h-3.254
		c-0.191,0-0.288-0.068-0.288-0.206c-0.02-0.724-0.269-1.272-0.749-1.646c-0.479-0.37-1.074-0.557-1.784-0.557
		c-0.749,0-1.368,0.221-1.857,0.66s-0.734,1.072-0.734,1.895c0,0.725,0.254,1.291,0.764,1.703c0.509,0.41,1.118,0.615,1.829,0.615
		c1.056,0,2.072,0.235,3.053,0.705c1.075,0.51,1.905,1.253,2.491,2.23c0.585,0.979,0.878,2.096,0.878,3.349
		C114.153,26.72,113.521,28.222,112.252,29.328z"/>
	<polygon fill="#00CCCC" points="55.488,24.909 59.549,24.909 57.533,18.743 	"/>
</g>
<path fill="#00CCCC" d="M0,20.79l6.283,11.385l13.089-0.019l6.805-11.399L19.894,9.374L6.806,9.392L0,20.79z M16.183,14.935
	c3.246,1.939,4.334,6.193,2.433,9.502c-1.902,3.309-6.074,4.42-9.32,2.48c-3.246-1.94-4.335-6.193-2.433-9.502
	C8.765,14.107,12.937,12.996,16.183,14.935z"/>
</svg>
