<?xml version="1.0" encoding="utf-8"?>
<!-- Generator: Adobe Illustrator 16.0.0, SVG Export Plug-In . SVG Version: 6.00 Build 0)  -->
<!DOCTYPE svg PUBLIC "-//W3C//DTD SVG 1.1//EN" "http://www.w3.org/Graphics/SVG/1.1/DTD/svg11.dtd">
<svg version="1.1" id="Layer_1" xmlns="http://www.w3.org/2000/svg" xmlns:xlink="http://www.w3.org/1999/xlink" x="0px" y="0px"
	 width="120px" height="40px" viewBox="244.001 79.389 120 40" enable-background="new 244.001 79.389 120 40" xml:space="preserve"
	>
<g>
	<path fill="#FFFFFF" d="M352.206,87.39l-78.657,0.047c-8.514-13.254-24.727-7.829-29.036-0.172h20.007l7.178,12.669l-7.181,12.667
		l-20.007,0.012c6.81,7.248,21.524,11.12,29.568-1.17l78.13-0.003c3.253-0.004,6.205-1.333,8.341-3.511
		c2.137-2.179,3.439-5.187,3.452-8.513C364.014,92.784,358.736,87.403,352.206,87.39z M291.166,109.936
		c0,0.156-0.086,0.235-0.259,0.235h-2.879c-0.192,0-0.288-0.068-0.288-0.206l-0.115-1.908c-1.325,1.547-3.121,2.32-5.386,2.32
		c-2.804,0-5.122-0.944-6.955-2.834c-1.834-1.889-2.75-4.468-2.75-7.737c0-3.014,0.983-5.53,2.952-7.546
		c1.968-2.016,4.363-3.024,7.186-3.024c2.841,0,5.222,1.008,7.142,3.024c0.154,0.117,0.154,0.235,0,0.353l-2.304,2.349
		c-0.135,0.118-0.259,0.118-0.375,0c-1.248-1.272-2.736-1.908-4.464-1.908c-1.786,0-3.279,0.607-4.479,1.82
		c-1.2,1.214-1.8,2.858-1.8,4.933c0,2.251,0.586,3.939,1.757,5.065c1.171,1.126,2.679,1.688,4.522,1.688
		c1.804,0,3.35-0.715,4.637-2.144v-2.673h-3.254c-0.192,0-0.288-0.068-0.288-0.205v-3.113c0-0.156,0.096-0.235,0.288-0.235h6.854
		c0.173,0,0.259,0.079,0.259,0.235V109.936L291.166,109.936z M309.425,110.084h-3.57c-0.115,0-0.192-0.049-0.23-0.147l-0.835-2.173
		h-6.538l-0.777,2.173c-0.039,0.099-0.125,0.147-0.259,0.147h-3.542c-0.269,0-0.355-0.107-0.259-0.323l7.862-20.672
		c0.038-0.098,0.125-0.146,0.259-0.146c0.134,0,0.22,0.049,0.259,0.146l7.862,20.672
		C309.751,109.976,309.675,110.084,309.425,110.084z M322.039,108.718c-1.267,1.106-2.774,1.659-4.521,1.659
		c-1.862-0.039-3.398-0.592-4.608-1.659c-1.209-1.066-1.824-2.539-1.843-4.419c0-0.156,0.096-0.234,0.288-0.234h3.283
		c0.192,0,0.288,0.078,0.288,0.234c0.019,0.725,0.278,1.282,0.777,1.674s1.104,0.587,1.814,0.587s1.319-0.22,1.828-0.66
		s0.764-1.003,0.764-1.688c0-0.725-0.269-1.321-0.807-1.791c-0.537-0.47-1.133-0.725-1.785-0.764c-1.057,0-2.084-0.235-3.081-0.705
		c-2.247-1.076-3.37-2.857-3.37-5.344c0-1.898,0.638-3.436,1.915-4.61c1.277-1.175,2.789-1.762,4.536-1.762
		c1.785,0,3.287,0.563,4.507,1.688c1.22,1.126,1.839,2.569,1.857,4.331c0,0.138-0.096,0.206-0.288,0.206h-3.254
		c-0.192,0-0.288-0.068-0.288-0.206c-0.02-0.724-0.269-1.272-0.749-1.645c-0.479-0.371-1.075-0.557-1.785-0.557
		c-0.749,0-1.368,0.22-1.857,0.66s-0.734,1.072-0.734,1.894c0,0.725,0.254,1.292,0.763,1.703s1.118,0.616,1.829,0.616
		c1.056,0,2.073,0.235,3.053,0.705c1.075,0.509,1.905,1.253,2.491,2.231c0.586,0.979,0.879,2.095,0.879,3.348
		C323.94,106.11,323.307,107.612,322.039,108.718z M343.841,89.911l-7.344,10.512v9.426c0,0.157-0.097,0.235-0.288,0.235h-3.283
		c-0.192,0-0.288-0.078-0.288-0.235v-9.426c-0.884-1.272-2.156-3.092-3.816-5.461c-1.661-2.368-2.837-4.052-3.528-5.05
		c-0.076-0.098-0.091-0.186-0.043-0.264c0.048-0.078,0.14-0.117,0.274-0.117h4.003c0.134,0,0.211,0.029,0.23,0.088l4.809,6.841
		l4.81-6.841c0.02-0.059,0.087-0.088,0.202-0.088h4.031c0.135,0,0.227,0.039,0.274,0.117
		C343.931,89.725,343.917,89.813,343.841,89.911z M356.253,108.718c-1.267,1.106-2.774,1.659-4.521,1.659
		c-1.862-0.039-3.398-0.592-4.608-1.659c-1.209-1.066-1.823-2.539-1.843-4.419c0-0.156,0.096-0.234,0.288-0.234h3.283
		c0.191,0,0.288,0.078,0.288,0.234c0.019,0.725,0.278,1.282,0.777,1.674s1.104,0.587,1.814,0.587s1.319-0.22,1.828-0.66
		s0.764-1.003,0.764-1.688c0-0.725-0.27-1.321-0.807-1.791s-1.133-0.725-1.785-0.764c-1.057,0-2.084-0.235-3.082-0.705
		c-2.246-1.076-3.369-2.857-3.369-5.344c0-1.898,0.638-3.436,1.915-4.61c1.277-1.175,2.788-1.762,4.536-1.762
		c1.785,0,3.287,0.563,4.507,1.688c1.22,1.126,1.839,2.569,1.857,4.331c0,0.138-0.096,0.206-0.288,0.206h-3.254
		c-0.192,0-0.288-0.068-0.288-0.206c-0.02-0.724-0.269-1.272-0.749-1.645c-0.479-0.371-1.075-0.557-1.785-0.557
		c-0.749,0-1.368,0.22-1.857,0.66s-0.734,1.072-0.734,1.894c0,0.725,0.254,1.292,0.763,1.703s1.118,0.616,1.829,0.616
		c1.056,0,2.073,0.235,3.053,0.705c1.075,0.509,1.905,1.253,2.491,2.231c0.585,0.979,0.878,2.095,0.878,3.348
		C358.154,106.11,357.521,107.612,356.253,108.718z"/>
	<polygon fill="#FFFFFF" points="299.489,104.299 303.55,104.299 301.534,98.133 	"/>
</g>
<path fill="#FFFFFF" d="M244.001,100.18l6.283,11.384l13.089-0.018l6.805-11.399l-6.283-11.383l-13.089,0.017L244.001,100.18z
	 M260.183,94.324c3.246,1.94,4.335,6.193,2.433,9.502c-1.902,3.309-6.074,4.42-9.32,2.48s-4.335-6.193-2.433-9.502
	C252.765,93.497,256.937,92.386,260.183,94.324z"/>
</svg>
